<svg width="205" height="166" viewBox="0 0 205 166" fill="none" xmlns="http://www.w3.org/2000/svg">
<g clip-path="url(#clip0_4_78)">
<path fill-rule="evenodd" clip-rule="evenodd" d="M0 165.122L19.5264 134.438C20.4442 132.996 22.0352 132.122 23.7447 132.122H179.39C181.025 132.122 182.557 132.922 183.492 134.263L205 165.122H0ZM104.5 143.622H87C84.5 144.289 79.6 146.622 80 150.622C80.4 154.622 84.8333 156.622 87 157.122H118.5C120.833 157.289 125.5 156.222 125.5 150.622C125.5 145.022 120.833 143.622 118.5 143.622H104.5Z" fill="#679750"/>
<path d="M117.513 55.1222H87.0926C85.5153 55.1222 84.0866 54.1978 83.4395 52.7594C77.5852 39.7479 68 18.7957 68 13.6222C68 9.6222 72.8333 4.78888 75.5 3.62221C87 0.122194 107 -2.37782 130.5 3.62221C135.553 4.91241 138 8.62221 138 13.6222C138 17.8745 124.981 44.9109 121.087 52.9013C120.42 54.2704 119.036 55.1222 117.513 55.1222Z" stroke="#679750" stroke-width="2"/>
<g filter="url(#filter0_d_4_78)">
<path fill-rule="evenodd" clip-rule="evenodd" d="M97 49.1222H109V57.6222L125.5 90.6222L132.5 116.122V136.622L127.5 142.122L109 151.122H97L85.7594 144.036L87 143.622H91.5L95.5 146.122H105.5L126 133.622C125.6 116.822 120.5 100.289 118 94.1222L102.5 87.6222L85.5 95.6222C85.5 95.6222 79.5 127.122 81.5 132.122H74V112.122L81 90.6222L97 57.6222V49.1222Z" fill="url(#paint0_linear_4_78)"/>
</g>
</g>
<defs>
<filter id="filter0_d_4_78" x="70" y="49.1222" width="66.5" height="110" filterUnits="userSpaceOnUse" color-interpolation-filters="sRGB">
<feFlood flood-opacity="0" result="BackgroundImageFix"/>
<feColorMatrix in="SourceAlpha" type="matrix" values="0 0 0 0 0 0 0 0 0 0 0 0 0 0 0 0 0 0 127 0" result="hardAlpha"/>
<feOffset dy="4"/>
<feGaussianBlur stdDeviation="2"/>
<feComposite in2="hardAlpha" operator="out"/>
<feColorMatrix type="matrix" values="0 0 0 0 0 0 0 0 0 0 0 0 0 0 0 0 0 0 0.12 0"/>
<feBlend mode="normal" in2="BackgroundImageFix" result="effect1_dropShadow_4_78"/>
<feBlend mode="normal" in="SourceGraphic" in2="effect1_dropShadow_4_78" result="shape"/>
</filter>
<linearGradient id="paint0_linear_4_78" x1="62.5" y1="104.622" x2="132" y2="85.6222" gradientUnits="userSpaceOnUse">
<stop stop-color="#679750"/>
<stop offset="0.415" stop-color="#96CA7D"/>
</linearGradient>
<clipPath id="clip0_4_78">
<rect width="205" height="165.122" fill="white"/>
</clipPath>
</defs>
</svg>
